<mxfile host="www.draw.io" modified="2020-08-31T09:20:59.686Z" agent="5.0 (Windows NT 10.0; Win64; x64) AppleWebKit/537.36 (KHTML, like Gecko) Chrome/84.0.4147.135 Safari/537.36" etag="1jC4qkqvHU_QRMB2-w1c" version="13.0.2" type="github">
  <diagram id="R2lEEEUBdFMjLlhIrx00" name="Page-1">
    <mxGraphModel dx="1718" dy="1550" grid="1" gridSize="10" guides="1" tooltips="1" connect="1" arrows="1" fold="1" page="1" pageScale="1" pageWidth="850" pageHeight="1100" math="0" shadow="0" extFonts="Permanent Marker^https://fonts.googleapis.com/css?family=Permanent+Marker">
      <root>
        <mxCell id="0" />
        <mxCell id="1" parent="0" />
        <mxCell id="utsIGUZCIPryRFQYJ9Vm-76" value="&lt;p class=&quot;MsoNormal&quot;&gt;Qualifier (&lt;u&gt;qualifierUI, qualifierName&lt;/u&gt;, dateCreated, dateRevised,&lt;/p&gt;&lt;p class=&quot;MsoNormal&quot;&gt;dateEstablished, annotation, onlineNote, historyNote)&lt;/p&gt;&lt;div&gt;&lt;br&gt;&lt;/div&gt;&lt;div&gt;&lt;br&gt;&lt;/div&gt;&lt;div&gt;AllowableQualifier (&lt;u&gt;qualifierUI, qualifierName,&lt;/u&gt;&lt;br&gt;&lt;p class=&quot;MsoNormal&quot;&gt;&lt;u&gt;abbreviation&lt;/u&gt;)&lt;/p&gt;&lt;br&gt;TreeNumber (&lt;u&gt;treeNumberUI&lt;/u&gt;)&lt;br&gt;&lt;/div&gt;" style="text;html=1;strokeColor=none;fillColor=none;align=center;verticalAlign=middle;rounded=0;whiteSpace=wrap;" vertex="1" parent="1">
          <mxGeometry x="940" y="180" width="430" height="290" as="geometry" />
        </mxCell>
        <mxCell id="nE6-rk7fYekWXhLa4hP_-1" value="&lt;p class=&quot;MsoNormal&quot;&gt;ThesaurusID (&lt;u&gt;thesaurusUI&lt;/u&gt;)&lt;/p&gt;&lt;br&gt;&lt;p class=&quot;MsoNormal&quot;&gt;Term (&lt;u&gt;termUI, string&lt;/u&gt;, dateCreated, abbreviation, sortVersion,&lt;/p&gt;&lt;p class=&quot;MsoNormal&quot;&gt;entryVersion, termNote)&lt;/p&gt;&lt;br&gt;&lt;br&gt;&lt;br&gt;&lt;p class=&quot;MsoNormal&quot;&gt;Concept (&lt;u&gt;conceptUI, conceptName&lt;/u&gt;, casn1Name, registryNumber,&lt;/p&gt;&lt;p class=&quot;MsoNormal&quot;&gt;scopeNote, translatorsEnglishScopeNote, translatorsScopeNote)&lt;/p&gt;&lt;br&gt;ConceptRelation (&lt;u&gt;concept1ui, concept2ui&lt;/u&gt;)&lt;br&gt;&lt;br&gt;&lt;br&gt;&lt;br&gt;RelatedRegistryNumber (&lt;u&gt;registryNumberUI&lt;/u&gt;)&lt;br&gt;&lt;br&gt;&lt;br&gt;&lt;p class=&quot;MsoNormal&quot;&gt;&lt;/p&gt;&lt;br&gt;&lt;br&gt;&lt;br&gt;&lt;br&gt;&lt;br&gt;&lt;p class=&quot;MsoNormal&quot;&gt;Descriptor (&lt;u&gt;descriptorUI, descriptorName&lt;/u&gt;, dateCreated,&lt;/p&gt;&lt;p class=&quot;MsoNormal&quot;&gt;dateRevised, dateEstablished, annotation, historyNote, nlmClassificationNumber,&lt;br&gt;onlineNote, publicMeshNote)&lt;/p&gt;&lt;br&gt;&lt;p class=&quot;MsoNormal&quot;&gt;&lt;/p&gt;&lt;p class=&quot;MsoNormal&quot;&gt;SeeRelatedDescriptor (&lt;u&gt;descriptorUI, descriptorName,&lt;/u&gt;&lt;/p&gt;&lt;p class=&quot;MsoNormal&quot;&gt;&lt;u&gt;descriptorUI,&amp;nbsp;&lt;/u&gt;&lt;u&gt;descriptorName&lt;/u&gt;)&lt;/p&gt;&lt;div&gt;&lt;br&gt;&lt;/div&gt;&lt;p class=&quot;MsoNormal&quot;&gt;&lt;span&gt;Supplemental (&lt;/span&gt;&lt;u&gt;supplementalRecordUI, supplementalRecordName&lt;/u&gt;&lt;span&gt;,&lt;/span&gt;&lt;br&gt;&lt;/p&gt;&lt;p class=&quot;MsoNormal&quot;&gt;dateCreated, dateRevised, note, frequency)&lt;/p&gt;&lt;br&gt;&lt;p class=&quot;MsoNormal&quot;&gt;Source (&lt;u&gt;sourceUI&lt;/u&gt;)&lt;/p&gt;&lt;br&gt;&lt;br&gt;PharmacologicalAction (&lt;u&gt;descriptorUI, descriptorName&lt;/u&gt;)&lt;br&gt;&lt;br&gt;&lt;br&gt;&lt;p class=&quot;MsoNormal&quot;&gt;Substance (&lt;u&gt;recordUI, recordName&lt;/u&gt;)&lt;/p&gt;&lt;br&gt;&lt;span&gt;PreviousIndexing (&lt;/span&gt;&lt;u&gt;previousIndexingUI&lt;/u&gt;&lt;span&gt;)&lt;/span&gt;&lt;br&gt;&lt;br&gt;&lt;span&gt;&lt;br&gt;&lt;br&gt;&lt;/span&gt;&lt;br&gt;&lt;br&gt;&lt;br&gt;&lt;br&gt;&lt;br&gt;&lt;br&gt;&lt;br&gt;&lt;span&gt;&lt;br&gt;IndexingInformation (&lt;/span&gt;&lt;u&gt;descriptorUI, descriptorName&lt;/u&gt;&lt;span&gt;,&lt;/span&gt;&lt;br&gt;&lt;p class=&quot;MsoNormal&quot;&gt;qualifierUI, qualifierName)&lt;/p&gt;&lt;br&gt;&lt;p class=&quot;MsoNormal&quot;&gt;HeadingMappedTo (&lt;u&gt;descriptorUI, descriptorName&lt;/u&gt;,&lt;/p&gt;&lt;p class=&quot;MsoNormal&quot;&gt;qualifierUI, qualifierName)&lt;/p&gt;&lt;p class=&quot;MsoNormal&quot;&gt;&lt;br&gt;&lt;/p&gt;&lt;p class=&quot;MsoNormal&quot;&gt;EntryCombination (&lt;u&gt;ecinDescriptorUI, ecinDescriptorName, ecinQualifierUI, ecinEualifierName,&lt;/u&gt;&lt;/p&gt;&lt;p class=&quot;MsoNormal&quot;&gt;&lt;u&gt;ecoutDescriptorUI, ecoutDescriptorName)&lt;/u&gt;&lt;/p&gt;&lt;br&gt;&lt;br&gt;&lt;p class=&quot;MsoNormal&quot;&gt;Ecin (&lt;u&gt;descriptorUI, descriptorName,&lt;/u&gt;&lt;/p&gt;&lt;p class=&quot;MsoNormal&quot;&gt;&lt;u&gt;qualifierUI, qualifierName&lt;/u&gt;)&lt;/p&gt;&lt;br&gt;&lt;br&gt;&lt;p class=&quot;MsoNormal&quot;&gt;Ecout (&lt;u&gt;descriptorUI, descriptorName,&amp;nbsp;&lt;/u&gt;&lt;/p&gt;&lt;p class=&quot;MsoNormal&quot;&gt;&lt;span&gt;qualifierUI,&amp;nbsp;&lt;/span&gt;&lt;span&gt;qualifierName&lt;/span&gt;&lt;u&gt;)&lt;/u&gt;&lt;/p&gt;" style="text;html=1;strokeColor=none;fillColor=none;align=center;verticalAlign=middle;whiteSpace=wrap;rounded=0;" parent="1" vertex="1">
          <mxGeometry x="-240" y="-610" width="480" height="1730" as="geometry" />
        </mxCell>
        <mxCell id="nE6-rk7fYekWXhLa4hP_-2" value="&lt;p class=&quot;MsoNormal&quot;&gt;TERM_REFERENCE (&lt;u&gt;termUI, string, thesaurusUI&lt;/u&gt;)&lt;/p&gt;&lt;br&gt;&lt;br&gt;&lt;p class=&quot;MsoNormal&quot;&gt;CONCEPT_TERM (&lt;u&gt;conceptUI, conceptName, termUI, string&lt;/u&gt;)&lt;/p&gt;&lt;br&gt;&lt;br&gt;&lt;p class=&quot;MsoNormal&quot;&gt;CONCEPT_REGISTRY (&lt;u&gt;conceptUI, conceptName, registryNumberUI)&lt;/u&gt;&lt;/p&gt;&lt;br&gt;&lt;br&gt;&lt;p class=&quot;MsoNormal&quot;&gt;SUPPLEMENTAL_CONCEPT (&lt;u&gt;supplementalRecordUI, supplementalRecordName,&lt;/u&gt;&lt;/p&gt;&lt;p class=&quot;MsoNormal&quot;&gt;&lt;u&gt;conceptUI, conceptName)&lt;/u&gt;&lt;/p&gt;&lt;br&gt;&lt;br&gt;&lt;p class=&quot;MsoNormal&quot;&gt;SUPPLEMENTAL_SOURCE (&lt;u&gt;sourceUI, supplementalRecordUI, supplementalRecordName)&lt;/u&gt;&lt;/p&gt;&lt;br&gt;&lt;br&gt;&lt;p class=&quot;MsoNormal&quot;&gt;QUALIFIER_CONCEPT (&lt;u&gt;qualifierUI, qualifierName, conceptUI, conceptName&lt;/u&gt;)&lt;/p&gt;&lt;br&gt;&lt;br&gt;&lt;p class=&quot;MsoNormal&quot;&gt;DESCRIPTOR_CONCEPT (descriptorUI, descritorName,&lt;/p&gt;&lt;p class=&quot;MsoNormal&quot;&gt;conceptUI, conceptName)&lt;/p&gt;&lt;br&gt;&lt;br&gt;&lt;p class=&quot;MsoNormal&quot;&gt;SUPPLEMENTAL_INDEX (&lt;u&gt;descriptorUI, descriptorName,&lt;/u&gt;&lt;/p&gt;&lt;p class=&quot;MsoNormal&quot;&gt;&lt;u&gt;supplementalRecordUI, supplementalRecordName)&lt;/u&gt;&lt;/p&gt;&lt;br&gt;&lt;br&gt;&lt;p class=&quot;MsoNormal&quot;&gt;SUPPLEMENTAL_HEADING (&lt;u&gt;descriptorUI, descriptorName,&amp;nbsp;&lt;/u&gt;&lt;/p&gt;&lt;p class=&quot;MsoNormal&quot;&gt;&lt;u&gt;supplementalRecordUI, supplementalRecordName)&lt;/u&gt;&lt;/p&gt;&lt;br&gt;&lt;br&gt;&lt;p class=&quot;MsoNormal&quot;&gt;PREVIOUS_SUPPLEMENTAL (&lt;u&gt;previousIndexingUI,&lt;/u&gt;&lt;/p&gt;&lt;p class=&quot;MsoNormal&quot;&gt;&lt;u&gt;supplementalRecordUI, supplementalRecordName)&lt;/u&gt;&lt;/p&gt;&lt;br&gt;&lt;br&gt;&lt;p class=&quot;MsoNormal&quot;&gt;PREVIOUS_DESCRIPTOR (&lt;u&gt;previousIndexingUI,&lt;/u&gt;&lt;/p&gt;&lt;p class=&quot;MsoNormal&quot;&gt;&lt;u&gt;descriptorUI, descriptorName)&lt;/u&gt;&lt;/p&gt;&lt;br&gt;&lt;br&gt;&lt;p class=&quot;MsoNormal&quot;&gt;DESCRIPTOR_ALLOWABLE_QUALIFIER (&lt;u&gt;qualifierUI, qualifierName,&lt;/u&gt;&lt;/p&gt;&lt;p class=&quot;MsoNormal&quot;&gt;&lt;u&gt;abbreviation, descritorUI, descritorName)&lt;/u&gt;&lt;/p&gt;&lt;br&gt;&lt;br&gt;&lt;p class=&quot;MsoNormal&quot;&gt;DESCRIPTOR_TREE (&lt;u&gt;descriptorUI, descriptorName, treeNumberUI&lt;/u&gt;)&lt;/p&gt;&lt;br&gt;&lt;br&gt;&lt;p class=&quot;MsoNormal&quot;&gt;QUALIFIER_TREE (&lt;u&gt;qualifierUI, qualifierName, treeNumberUI&lt;/u&gt;)&lt;/p&gt;&lt;br&gt;&lt;br&gt;&lt;p class=&quot;MsoNormal&quot;&gt;SUPPLEMENTAL_PHARMACOLOGICAL_ACTION (&lt;/p&gt;&lt;p class=&quot;MsoNormal&quot;&gt;&lt;u&gt;supplementalRecordUI, supplementalRecordName,&lt;/u&gt;&lt;/p&gt;&lt;p class=&quot;MsoNormal&quot;&gt;&lt;u&gt;descriptorUI, descriptorName)&lt;/u&gt;&lt;/p&gt;&lt;br&gt;&lt;p class=&quot;MsoNormal&quot;&gt;PHARMACOLOGICAL_ACTION_SUBSTANCE (&lt;/p&gt;&lt;p class=&quot;MsoNormal&quot;&gt;&lt;u&gt;descriptorUI, descriptorName,&lt;/u&gt;&lt;/p&gt;&lt;p class=&quot;MsoNormal&quot;&gt;&lt;u&gt;recordUI, recordName)&lt;/u&gt;&lt;/p&gt;" style="text;html=1;strokeColor=none;fillColor=none;align=center;verticalAlign=middle;whiteSpace=wrap;rounded=0;" parent="1" vertex="1">
          <mxGeometry x="288" y="-368" width="520" height="1310" as="geometry" />
        </mxCell>
        <mxCell id="nE6-rk7fYekWXhLa4hP_-3" value="" style="rounded=1;whiteSpace=wrap;html=1;fillColor=none;" parent="1" vertex="1">
          <mxGeometry x="-130" y="-380" width="80" height="30" as="geometry" />
        </mxCell>
        <mxCell id="nE6-rk7fYekWXhLa4hP_-4" value="" style="rounded=1;whiteSpace=wrap;html=1;fillColor=none;" parent="1" vertex="1">
          <mxGeometry x="534" y="-362.5" width="80" height="37.5" as="geometry" />
        </mxCell>
        <mxCell id="nE6-rk7fYekWXhLa4hP_-5" value="" style="endArrow=classic;html=1;exitX=0.5;exitY=0;exitDx=0;exitDy=0;entryX=0.5;entryY=0;entryDx=0;entryDy=0;rounded=1;edgeStyle=orthogonalEdgeStyle;" parent="1" source="nE6-rk7fYekWXhLa4hP_-4" target="nE6-rk7fYekWXhLa4hP_-3" edge="1">
          <mxGeometry width="50" height="50" relative="1" as="geometry">
            <mxPoint x="250" y="-200" as="sourcePoint" />
            <mxPoint x="300" y="-250" as="targetPoint" />
            <Array as="points">
              <mxPoint x="574" y="-400" />
              <mxPoint x="-90" y="-400" />
            </Array>
          </mxGeometry>
        </mxCell>
        <mxCell id="nE6-rk7fYekWXhLa4hP_-6" value="" style="rounded=1;whiteSpace=wrap;html=1;fillColor=none;" parent="1" vertex="1">
          <mxGeometry x="2" y="-442" width="70" height="40" as="geometry" />
        </mxCell>
        <mxCell id="nE6-rk7fYekWXhLa4hP_-8" value="" style="endArrow=classic;html=1;exitX=0.5;exitY=0;exitDx=0;exitDy=0;entryX=0.5;entryY=0;entryDx=0;entryDy=0;rounded=1;edgeStyle=orthogonalEdgeStyle;" parent="1" source="utsIGUZCIPryRFQYJ9Vm-5" target="nE6-rk7fYekWXhLa4hP_-6" edge="1">
          <mxGeometry width="50" height="50" relative="1" as="geometry">
            <mxPoint x="649" y="-360.0000000000002" as="sourcePoint" />
            <mxPoint x="-90" y="-345" as="targetPoint" />
            <Array as="points">
              <mxPoint x="652" y="-470" />
              <mxPoint x="37" y="-470" />
            </Array>
          </mxGeometry>
        </mxCell>
        <mxCell id="utsIGUZCIPryRFQYJ9Vm-1" value="" style="rounded=1;whiteSpace=wrap;html=1;fillColor=none;" vertex="1" parent="1">
          <mxGeometry x="630" y="-300" width="80" height="40" as="geometry" />
        </mxCell>
        <mxCell id="utsIGUZCIPryRFQYJ9Vm-4" value="" style="endArrow=classic;html=1;entryX=0.5;entryY=1;entryDx=0;entryDy=0;edgeStyle=orthogonalEdgeStyle;exitX=0.5;exitY=0;exitDx=0;exitDy=0;" edge="1" parent="1" source="utsIGUZCIPryRFQYJ9Vm-1" target="nE6-rk7fYekWXhLa4hP_-3">
          <mxGeometry width="50" height="50" relative="1" as="geometry">
            <mxPoint x="130" y="-160" as="sourcePoint" />
            <mxPoint x="180" y="-210" as="targetPoint" />
            <Array as="points">
              <mxPoint x="670" y="-310" />
              <mxPoint x="-90" y="-310" />
            </Array>
          </mxGeometry>
        </mxCell>
        <mxCell id="utsIGUZCIPryRFQYJ9Vm-5" value="" style="rounded=1;whiteSpace=wrap;html=1;fillColor=none;" vertex="1" parent="1">
          <mxGeometry x="614" y="-362.5" width="76" height="37.5" as="geometry" />
        </mxCell>
        <mxCell id="utsIGUZCIPryRFQYJ9Vm-6" value="" style="rounded=1;whiteSpace=wrap;html=1;fillColor=none;" vertex="1" parent="1">
          <mxGeometry x="490" y="-300" width="140" height="40" as="geometry" />
        </mxCell>
        <mxCell id="utsIGUZCIPryRFQYJ9Vm-7" value="" style="rounded=1;whiteSpace=wrap;html=1;fillColor=none;" vertex="1" parent="1">
          <mxGeometry x="-130" y="-270" width="150" height="20" as="geometry" />
        </mxCell>
        <mxCell id="utsIGUZCIPryRFQYJ9Vm-8" value="" style="endArrow=classic;html=1;exitX=0.5;exitY=1;exitDx=0;exitDy=0;entryX=0.5;entryY=0;entryDx=0;entryDy=0;edgeStyle=orthogonalEdgeStyle;" edge="1" parent="1" source="utsIGUZCIPryRFQYJ9Vm-6" target="utsIGUZCIPryRFQYJ9Vm-7">
          <mxGeometry width="50" height="50" relative="1" as="geometry">
            <mxPoint x="200" y="-170" as="sourcePoint" />
            <mxPoint x="250" y="-220" as="targetPoint" />
            <Array as="points">
              <mxPoint x="560" y="-250" />
              <mxPoint x="230" y="-250" />
              <mxPoint x="230" y="-280" />
              <mxPoint x="-55" y="-280" />
            </Array>
          </mxGeometry>
        </mxCell>
        <mxCell id="utsIGUZCIPryRFQYJ9Vm-9" value="" style="rounded=1;whiteSpace=wrap;html=1;fillColor=none;" vertex="1" parent="1">
          <mxGeometry x="478" y="-134" width="140" height="30" as="geometry" />
        </mxCell>
        <mxCell id="utsIGUZCIPryRFQYJ9Vm-10" value="" style="endArrow=classic;html=1;exitX=0.5;exitY=1;exitDx=0;exitDy=0;entryX=0.5;entryY=0;entryDx=0;entryDy=0;edgeStyle=orthogonalEdgeStyle;" edge="1" parent="1" source="utsIGUZCIPryRFQYJ9Vm-9" target="utsIGUZCIPryRFQYJ9Vm-7">
          <mxGeometry width="50" height="50" relative="1" as="geometry">
            <mxPoint x="200" y="-100" as="sourcePoint" />
            <mxPoint x="-55" y="-200.00000000000023" as="targetPoint" />
            <Array as="points">
              <mxPoint x="548" y="-94" />
              <mxPoint x="230" y="-94" />
              <mxPoint x="230" y="-280" />
              <mxPoint x="-55" y="-280" />
            </Array>
          </mxGeometry>
        </mxCell>
        <mxCell id="utsIGUZCIPryRFQYJ9Vm-11" value="" style="rounded=1;whiteSpace=wrap;html=1;fillColor=none;" vertex="1" parent="1">
          <mxGeometry x="493" y="-234" width="140" height="40" as="geometry" />
        </mxCell>
        <mxCell id="utsIGUZCIPryRFQYJ9Vm-12" value="" style="endArrow=classic;html=1;exitX=0.5;exitY=1;exitDx=0;exitDy=0;edgeStyle=orthogonalEdgeStyle;entryX=0.5;entryY=0;entryDx=0;entryDy=0;" edge="1" parent="1" source="utsIGUZCIPryRFQYJ9Vm-11" target="utsIGUZCIPryRFQYJ9Vm-7">
          <mxGeometry width="50" height="50" relative="1" as="geometry">
            <mxPoint x="220" y="-150" as="sourcePoint" />
            <mxPoint x="-50" y="-280" as="targetPoint" />
            <Array as="points">
              <mxPoint x="563" y="-184" />
              <mxPoint x="230" y="-184" />
              <mxPoint x="230" y="-280" />
              <mxPoint x="-55" y="-280" />
            </Array>
          </mxGeometry>
        </mxCell>
        <mxCell id="utsIGUZCIPryRFQYJ9Vm-13" value="" style="rounded=1;whiteSpace=wrap;html=1;fillColor=none;" vertex="1" parent="1">
          <mxGeometry x="-100" y="150" width="280" height="20" as="geometry" />
        </mxCell>
        <mxCell id="utsIGUZCIPryRFQYJ9Vm-14" value="" style="rounded=1;whiteSpace=wrap;html=1;fillColor=none;" vertex="1" parent="1">
          <mxGeometry x="490" y="-157" width="280" height="20" as="geometry" />
        </mxCell>
        <mxCell id="utsIGUZCIPryRFQYJ9Vm-15" value="" style="rounded=1;whiteSpace=wrap;html=1;fillColor=none;" vertex="1" parent="1">
          <mxGeometry x="517" y="-65" width="280" height="20" as="geometry" />
        </mxCell>
        <mxCell id="utsIGUZCIPryRFQYJ9Vm-21" style="edgeStyle=orthogonalEdgeStyle;rounded=1;orthogonalLoop=1;jettySize=auto;html=1;entryX=1;entryY=0.75;entryDx=0;entryDy=0;" edge="1" parent="1" source="utsIGUZCIPryRFQYJ9Vm-16" target="utsIGUZCIPryRFQYJ9Vm-13">
          <mxGeometry relative="1" as="geometry">
            <Array as="points">
              <mxPoint x="280" y="197" />
              <mxPoint x="280" y="160" />
              <mxPoint x="180" y="160" />
            </Array>
          </mxGeometry>
        </mxCell>
        <mxCell id="utsIGUZCIPryRFQYJ9Vm-16" value="" style="rounded=1;whiteSpace=wrap;html=1;fillColor=none;" vertex="1" parent="1">
          <mxGeometry x="410" y="187" width="280" height="20" as="geometry" />
        </mxCell>
        <mxCell id="utsIGUZCIPryRFQYJ9Vm-22" style="edgeStyle=orthogonalEdgeStyle;rounded=1;orthogonalLoop=1;jettySize=auto;html=1;exitX=0.5;exitY=1;exitDx=0;exitDy=0;" edge="1" parent="1" source="utsIGUZCIPryRFQYJ9Vm-17">
          <mxGeometry relative="1" as="geometry">
            <mxPoint x="180" y="160" as="targetPoint" />
            <Array as="points">
              <mxPoint x="551" y="317" />
              <mxPoint x="280" y="317" />
              <mxPoint x="280" y="160" />
            </Array>
          </mxGeometry>
        </mxCell>
        <mxCell id="utsIGUZCIPryRFQYJ9Vm-17" value="" style="rounded=1;whiteSpace=wrap;html=1;fillColor=none;" vertex="1" parent="1">
          <mxGeometry x="411" y="277" width="280" height="20" as="geometry" />
        </mxCell>
        <mxCell id="utsIGUZCIPryRFQYJ9Vm-23" style="edgeStyle=orthogonalEdgeStyle;rounded=1;orthogonalLoop=1;jettySize=auto;html=1;exitX=0.5;exitY=1;exitDx=0;exitDy=0;entryX=1;entryY=0.5;entryDx=0;entryDy=0;" edge="1" parent="1" source="utsIGUZCIPryRFQYJ9Vm-18" target="utsIGUZCIPryRFQYJ9Vm-13">
          <mxGeometry relative="1" as="geometry">
            <mxPoint x="293" y="150" as="targetPoint" />
            <Array as="points">
              <mxPoint x="546" y="409" />
              <mxPoint x="280" y="409" />
              <mxPoint x="280" y="160" />
            </Array>
          </mxGeometry>
        </mxCell>
        <mxCell id="utsIGUZCIPryRFQYJ9Vm-18" value="" style="rounded=1;whiteSpace=wrap;html=1;fillColor=none;" vertex="1" parent="1">
          <mxGeometry x="406" y="369" width="280" height="20" as="geometry" />
        </mxCell>
        <mxCell id="utsIGUZCIPryRFQYJ9Vm-19" value="" style="endArrow=classic;html=1;exitX=0.5;exitY=0;exitDx=0;exitDy=0;edgeStyle=orthogonalEdgeStyle;entryX=1;entryY=0.5;entryDx=0;entryDy=0;" edge="1" parent="1" source="utsIGUZCIPryRFQYJ9Vm-14" target="utsIGUZCIPryRFQYJ9Vm-13">
          <mxGeometry width="50" height="50" relative="1" as="geometry">
            <mxPoint x="290" y="50" as="sourcePoint" />
            <mxPoint x="340" as="targetPoint" />
            <Array as="points">
              <mxPoint x="630" y="-167" />
              <mxPoint x="290" y="-167" />
              <mxPoint x="290" y="160" />
            </Array>
          </mxGeometry>
        </mxCell>
        <mxCell id="utsIGUZCIPryRFQYJ9Vm-20" value="" style="endArrow=classic;html=1;exitX=0.5;exitY=0;exitDx=0;exitDy=0;edgeStyle=orthogonalEdgeStyle;entryX=1;entryY=0.75;entryDx=0;entryDy=0;" edge="1" parent="1" source="utsIGUZCIPryRFQYJ9Vm-15" target="utsIGUZCIPryRFQYJ9Vm-13">
          <mxGeometry width="50" height="50" relative="1" as="geometry">
            <mxPoint x="649.94" y="-89.94" as="sourcePoint" />
            <mxPoint x="199.94" y="177.05999999999977" as="targetPoint" />
            <Array as="points">
              <mxPoint x="650" y="-65" />
              <mxPoint x="650" y="-80" />
              <mxPoint x="290" y="-80" />
              <mxPoint x="290" y="160" />
              <mxPoint x="180" y="160" />
            </Array>
          </mxGeometry>
        </mxCell>
        <mxCell id="utsIGUZCIPryRFQYJ9Vm-27" style="edgeStyle=orthogonalEdgeStyle;rounded=1;orthogonalLoop=1;jettySize=auto;html=1;exitX=0;exitY=0.25;exitDx=0;exitDy=0;entryX=1;entryY=0.75;entryDx=0;entryDy=0;" edge="1" parent="1" source="utsIGUZCIPryRFQYJ9Vm-28" target="utsIGUZCIPryRFQYJ9Vm-13">
          <mxGeometry relative="1" as="geometry">
            <mxPoint x="270" y="320" as="targetPoint" />
            <Array as="points">
              <mxPoint x="410" y="786" />
              <mxPoint x="280" y="786" />
              <mxPoint x="280" y="160" />
              <mxPoint x="180" y="160" />
            </Array>
          </mxGeometry>
        </mxCell>
        <mxCell id="utsIGUZCIPryRFQYJ9Vm-28" value="" style="rounded=1;whiteSpace=wrap;html=1;fillColor=none;" vertex="1" parent="1">
          <mxGeometry x="410" y="776" width="280" height="20" as="geometry" />
        </mxCell>
        <mxCell id="utsIGUZCIPryRFQYJ9Vm-31" style="edgeStyle=orthogonalEdgeStyle;rounded=1;orthogonalLoop=1;jettySize=auto;html=1;exitX=0.5;exitY=0;exitDx=0;exitDy=0;entryX=0.5;entryY=0;entryDx=0;entryDy=0;" edge="1" parent="1">
          <mxGeometry relative="1" as="geometry">
            <mxPoint x="686" y="-11" as="sourcePoint" />
            <mxPoint x="-55" y="-274" as="targetPoint" />
            <Array as="points">
              <mxPoint x="686" y="-34" />
              <mxPoint x="230" y="-34" />
              <mxPoint x="230" y="-280" />
              <mxPoint x="-55" y="-280" />
            </Array>
          </mxGeometry>
        </mxCell>
        <mxCell id="utsIGUZCIPryRFQYJ9Vm-29" value="" style="rounded=1;whiteSpace=wrap;html=1;fillColor=none;" vertex="1" parent="1">
          <mxGeometry x="616" y="-7" width="140" height="37" as="geometry" />
        </mxCell>
        <mxCell id="utsIGUZCIPryRFQYJ9Vm-33" style="edgeStyle=orthogonalEdgeStyle;rounded=1;orthogonalLoop=1;jettySize=auto;html=1;entryX=0.5;entryY=0;entryDx=0;entryDy=0;" edge="1" parent="1" source="utsIGUZCIPryRFQYJ9Vm-32" target="utsIGUZCIPryRFQYJ9Vm-7">
          <mxGeometry relative="1" as="geometry">
            <Array as="points">
              <mxPoint x="230" y="102" />
              <mxPoint x="230" y="-280" />
              <mxPoint x="-55" y="-280" />
            </Array>
          </mxGeometry>
        </mxCell>
        <mxCell id="utsIGUZCIPryRFQYJ9Vm-32" value="" style="rounded=1;whiteSpace=wrap;html=1;fillColor=none;" vertex="1" parent="1">
          <mxGeometry x="480" y="83" width="140" height="37" as="geometry" />
        </mxCell>
        <mxCell id="utsIGUZCIPryRFQYJ9Vm-34" value="" style="rounded=1;whiteSpace=wrap;html=1;fillColor=none;" vertex="1" parent="1">
          <mxGeometry x="-126" y="-280" width="60" height="30" as="geometry" />
        </mxCell>
        <mxCell id="utsIGUZCIPryRFQYJ9Vm-36" style="edgeStyle=orthogonalEdgeStyle;rounded=1;orthogonalLoop=1;jettySize=auto;html=1;entryX=0.5;entryY=0;entryDx=0;entryDy=0;" edge="1" parent="1" source="utsIGUZCIPryRFQYJ9Vm-35" target="utsIGUZCIPryRFQYJ9Vm-34">
          <mxGeometry relative="1" as="geometry">
            <Array as="points">
              <mxPoint x="14" y="-220" />
              <mxPoint x="-180" y="-220" />
              <mxPoint x="-180" y="-300" />
              <mxPoint x="-100" y="-300" />
            </Array>
          </mxGeometry>
        </mxCell>
        <mxCell id="utsIGUZCIPryRFQYJ9Vm-35" value="" style="rounded=1;whiteSpace=wrap;html=1;fillColor=none;" vertex="1" parent="1">
          <mxGeometry x="-20" y="-210" width="65" height="30" as="geometry" />
        </mxCell>
        <mxCell id="utsIGUZCIPryRFQYJ9Vm-37" style="edgeStyle=orthogonalEdgeStyle;rounded=1;orthogonalLoop=1;jettySize=auto;html=1;entryX=0.5;entryY=0;entryDx=0;entryDy=0;" edge="1" parent="1" source="utsIGUZCIPryRFQYJ9Vm-38" target="utsIGUZCIPryRFQYJ9Vm-34">
          <mxGeometry relative="1" as="geometry">
            <mxPoint x="-32" y="-280" as="targetPoint" />
            <Array as="points">
              <mxPoint x="82" y="-220" />
              <mxPoint x="-200" y="-220" />
              <mxPoint x="-200" y="-300" />
              <mxPoint x="-100" y="-300" />
            </Array>
          </mxGeometry>
        </mxCell>
        <mxCell id="utsIGUZCIPryRFQYJ9Vm-38" value="" style="rounded=1;whiteSpace=wrap;html=1;fillColor=none;" vertex="1" parent="1">
          <mxGeometry x="45" y="-210" width="73" height="30" as="geometry" />
        </mxCell>
        <mxCell id="utsIGUZCIPryRFQYJ9Vm-40" value="" style="rounded=1;whiteSpace=wrap;html=1;fillColor=none;" vertex="1" parent="1">
          <mxGeometry x="10" y="-157" width="120" height="34" as="geometry" />
        </mxCell>
        <mxCell id="utsIGUZCIPryRFQYJ9Vm-43" style="edgeStyle=orthogonalEdgeStyle;rounded=1;orthogonalLoop=1;jettySize=auto;html=1;entryX=1;entryY=0.5;entryDx=0;entryDy=0;" edge="1" parent="1" source="utsIGUZCIPryRFQYJ9Vm-42" target="utsIGUZCIPryRFQYJ9Vm-40">
          <mxGeometry relative="1" as="geometry">
            <Array as="points">
              <mxPoint x="687" y="-180" />
              <mxPoint x="270" y="-180" />
              <mxPoint x="270" y="-140" />
            </Array>
          </mxGeometry>
        </mxCell>
        <mxCell id="utsIGUZCIPryRFQYJ9Vm-42" value="" style="rounded=1;whiteSpace=wrap;html=1;fillColor=none;" vertex="1" parent="1">
          <mxGeometry x="633" y="-234" width="107" height="40" as="geometry" />
        </mxCell>
        <mxCell id="utsIGUZCIPryRFQYJ9Vm-44" value="" style="rounded=1;whiteSpace=wrap;html=1;fillColor=none;" vertex="1" parent="1">
          <mxGeometry x="1035" y="244.5" width="140" height="35" as="geometry" />
        </mxCell>
        <mxCell id="utsIGUZCIPryRFQYJ9Vm-78" style="edgeStyle=orthogonalEdgeStyle;rounded=1;orthogonalLoop=1;jettySize=auto;html=1;endArrow=classic;endFill=1;strokeColor=#000000;entryX=0.5;entryY=0;entryDx=0;entryDy=0;" edge="1" parent="1" source="utsIGUZCIPryRFQYJ9Vm-45" target="utsIGUZCIPryRFQYJ9Vm-44">
          <mxGeometry relative="1" as="geometry">
            <Array as="points">
              <mxPoint x="546" y="40" />
              <mxPoint x="1105" y="40" />
            </Array>
          </mxGeometry>
        </mxCell>
        <mxCell id="utsIGUZCIPryRFQYJ9Vm-45" value="" style="rounded=1;whiteSpace=wrap;html=1;fillColor=none;" vertex="1" parent="1">
          <mxGeometry x="476" y="-7" width="140" height="35" as="geometry" />
        </mxCell>
        <mxCell id="utsIGUZCIPryRFQYJ9Vm-47" value="" style="rounded=1;whiteSpace=wrap;html=1;fillColor=none;" vertex="1" parent="1">
          <mxGeometry x="-88" y="-20" width="160" height="30" as="geometry" />
        </mxCell>
        <mxCell id="utsIGUZCIPryRFQYJ9Vm-49" style="edgeStyle=orthogonalEdgeStyle;rounded=1;orthogonalLoop=1;jettySize=auto;html=1;entryX=0.5;entryY=0;entryDx=0;entryDy=0;" edge="1" parent="1" source="utsIGUZCIPryRFQYJ9Vm-48" target="utsIGUZCIPryRFQYJ9Vm-47">
          <mxGeometry relative="1" as="geometry">
            <Array as="points">
              <mxPoint x="626" y="140" />
              <mxPoint x="220" y="140" />
              <mxPoint x="220" y="-30" />
              <mxPoint x="-8" y="-30" />
            </Array>
          </mxGeometry>
        </mxCell>
        <mxCell id="utsIGUZCIPryRFQYJ9Vm-48" value="" style="rounded=1;whiteSpace=wrap;html=1;fillColor=none;" vertex="1" parent="1">
          <mxGeometry x="546" y="60" width="160" height="30" as="geometry" />
        </mxCell>
        <mxCell id="utsIGUZCIPryRFQYJ9Vm-50" value="" style="rounded=1;whiteSpace=wrap;html=1;fillColor=none;" vertex="1" parent="1">
          <mxGeometry x="-20" y="70" width="160" height="30" as="geometry" />
        </mxCell>
        <mxCell id="utsIGUZCIPryRFQYJ9Vm-52" style="edgeStyle=orthogonalEdgeStyle;rounded=1;orthogonalLoop=1;jettySize=auto;html=1;entryX=0.5;entryY=0;entryDx=0;entryDy=0;" edge="1" parent="1" source="utsIGUZCIPryRFQYJ9Vm-51" target="utsIGUZCIPryRFQYJ9Vm-47">
          <mxGeometry relative="1" as="geometry">
            <mxPoint x="-10" y="-30" as="targetPoint" />
            <Array as="points">
              <mxPoint x="-220" y="115" />
              <mxPoint x="-220" y="-40" />
              <mxPoint x="-8" y="-40" />
            </Array>
          </mxGeometry>
        </mxCell>
        <mxCell id="utsIGUZCIPryRFQYJ9Vm-51" value="" style="rounded=1;whiteSpace=wrap;html=1;fillColor=none;" vertex="1" parent="1">
          <mxGeometry x="-80" y="100" width="160" height="30" as="geometry" />
        </mxCell>
        <mxCell id="utsIGUZCIPryRFQYJ9Vm-53" style="edgeStyle=orthogonalEdgeStyle;rounded=1;orthogonalLoop=1;jettySize=auto;html=1;entryX=0.5;entryY=0;entryDx=0;entryDy=0;exitX=0.5;exitY=0;exitDx=0;exitDy=0;" edge="1" parent="1" source="utsIGUZCIPryRFQYJ9Vm-50" target="utsIGUZCIPryRFQYJ9Vm-47">
          <mxGeometry relative="1" as="geometry">
            <mxPoint x="2" y="-10" as="targetPoint" />
            <mxPoint x="-70" y="125" as="sourcePoint" />
            <Array as="points">
              <mxPoint x="60" y="60" />
              <mxPoint x="-220" y="60" />
              <mxPoint x="-220" y="-40" />
              <mxPoint x="-8" y="-40" />
            </Array>
          </mxGeometry>
        </mxCell>
        <mxCell id="utsIGUZCIPryRFQYJ9Vm-56" style="edgeStyle=orthogonalEdgeStyle;rounded=1;orthogonalLoop=1;jettySize=auto;html=1;entryX=1;entryY=0.5;entryDx=0;entryDy=0;" edge="1" parent="1" source="utsIGUZCIPryRFQYJ9Vm-54" target="utsIGUZCIPryRFQYJ9Vm-55">
          <mxGeometry relative="1" as="geometry">
            <Array as="points">
              <mxPoint x="490" y="-10" />
              <mxPoint x="260" y="-10" />
              <mxPoint x="260" y="242" />
            </Array>
          </mxGeometry>
        </mxCell>
        <mxCell id="utsIGUZCIPryRFQYJ9Vm-54" value="" style="rounded=1;whiteSpace=wrap;html=1;fillColor=none;" vertex="1" parent="1">
          <mxGeometry x="460" y="-70" width="60" height="30" as="geometry" />
        </mxCell>
        <mxCell id="utsIGUZCIPryRFQYJ9Vm-55" value="" style="rounded=1;whiteSpace=wrap;html=1;fillColor=none;" vertex="1" parent="1">
          <mxGeometry x="-10" y="220" width="60" height="43" as="geometry" />
        </mxCell>
        <mxCell id="utsIGUZCIPryRFQYJ9Vm-58" style="edgeStyle=orthogonalEdgeStyle;rounded=1;orthogonalLoop=1;jettySize=auto;html=1;entryX=0.5;entryY=0;entryDx=0;entryDy=0;" edge="1" parent="1" source="utsIGUZCIPryRFQYJ9Vm-57" target="utsIGUZCIPryRFQYJ9Vm-47">
          <mxGeometry relative="1" as="geometry">
            <mxPoint x="-220" y="-30" as="targetPoint" />
            <Array as="points">
              <mxPoint x="60" y="270" />
              <mxPoint x="-220" y="270" />
              <mxPoint x="-220" y="-40" />
              <mxPoint x="-8" y="-40" />
            </Array>
          </mxGeometry>
        </mxCell>
        <mxCell id="utsIGUZCIPryRFQYJ9Vm-57" value="" style="rounded=1;whiteSpace=wrap;html=1;fillColor=none;" vertex="1" parent="1">
          <mxGeometry x="-20" y="280" width="160" height="30" as="geometry" />
        </mxCell>
        <mxCell id="utsIGUZCIPryRFQYJ9Vm-62" style="edgeStyle=orthogonalEdgeStyle;rounded=1;orthogonalLoop=1;jettySize=auto;html=1;entryX=0.5;entryY=0;entryDx=0;entryDy=0;" edge="1" parent="1" source="utsIGUZCIPryRFQYJ9Vm-59" target="utsIGUZCIPryRFQYJ9Vm-47">
          <mxGeometry relative="1" as="geometry">
            <Array as="points">
              <mxPoint x="620" y="140" />
              <mxPoint x="220" y="140" />
              <mxPoint x="220" y="-30" />
              <mxPoint x="-8" y="-30" />
            </Array>
          </mxGeometry>
        </mxCell>
        <mxCell id="utsIGUZCIPryRFQYJ9Vm-59" value="" style="rounded=1;whiteSpace=wrap;html=1;fillColor=none;" vertex="1" parent="1">
          <mxGeometry x="540" y="150" width="160" height="30" as="geometry" />
        </mxCell>
        <mxCell id="utsIGUZCIPryRFQYJ9Vm-63" style="edgeStyle=orthogonalEdgeStyle;rounded=1;orthogonalLoop=1;jettySize=auto;html=1;entryX=0.5;entryY=0;entryDx=0;entryDy=0;" edge="1" parent="1" source="utsIGUZCIPryRFQYJ9Vm-60" target="utsIGUZCIPryRFQYJ9Vm-47">
          <mxGeometry relative="1" as="geometry">
            <Array as="points">
              <mxPoint x="630" y="230" />
              <mxPoint x="220" y="230" />
              <mxPoint x="220" y="-30" />
              <mxPoint x="-8" y="-30" />
            </Array>
          </mxGeometry>
        </mxCell>
        <mxCell id="utsIGUZCIPryRFQYJ9Vm-60" value="" style="rounded=1;whiteSpace=wrap;html=1;fillColor=none;" vertex="1" parent="1">
          <mxGeometry x="550" y="247" width="160" height="30" as="geometry" />
        </mxCell>
        <mxCell id="utsIGUZCIPryRFQYJ9Vm-64" style="edgeStyle=orthogonalEdgeStyle;rounded=1;orthogonalLoop=1;jettySize=auto;html=1;entryX=0.5;entryY=0;entryDx=0;entryDy=0;" edge="1" parent="1" source="utsIGUZCIPryRFQYJ9Vm-61" target="utsIGUZCIPryRFQYJ9Vm-47">
          <mxGeometry relative="1" as="geometry">
            <Array as="points">
              <mxPoint x="220" y="472" />
              <mxPoint x="220" y="-30" />
              <mxPoint x="-8" y="-30" />
            </Array>
          </mxGeometry>
        </mxCell>
        <mxCell id="utsIGUZCIPryRFQYJ9Vm-61" value="" style="rounded=1;whiteSpace=wrap;html=1;fillColor=none;" vertex="1" parent="1">
          <mxGeometry x="468" y="457" width="160" height="30" as="geometry" />
        </mxCell>
        <mxCell id="utsIGUZCIPryRFQYJ9Vm-65" value="" style="rounded=1;whiteSpace=wrap;html=1;fillColor=none;" vertex="1" parent="1">
          <mxGeometry x="-10" y="370" width="120" height="30" as="geometry" />
        </mxCell>
        <mxCell id="utsIGUZCIPryRFQYJ9Vm-67" style="edgeStyle=orthogonalEdgeStyle;rounded=1;orthogonalLoop=1;jettySize=auto;html=1;entryX=1;entryY=0.5;entryDx=0;entryDy=0;" edge="1" parent="1" source="utsIGUZCIPryRFQYJ9Vm-66" target="utsIGUZCIPryRFQYJ9Vm-65">
          <mxGeometry relative="1" as="geometry">
            <Array as="points">
              <mxPoint x="720" y="351" />
              <mxPoint x="720" y="420" />
              <mxPoint x="130" y="420" />
              <mxPoint x="130" y="385" />
            </Array>
          </mxGeometry>
        </mxCell>
        <mxCell id="utsIGUZCIPryRFQYJ9Vm-66" value="" style="rounded=1;whiteSpace=wrap;html=1;fillColor=none;" vertex="1" parent="1">
          <mxGeometry x="577" y="336" width="120" height="30" as="geometry" />
        </mxCell>
        <mxCell id="utsIGUZCIPryRFQYJ9Vm-68" style="edgeStyle=orthogonalEdgeStyle;rounded=1;orthogonalLoop=1;jettySize=auto;html=1;entryX=1;entryY=0.5;entryDx=0;entryDy=0;" edge="1" parent="1" source="utsIGUZCIPryRFQYJ9Vm-69" target="utsIGUZCIPryRFQYJ9Vm-65">
          <mxGeometry relative="1" as="geometry">
            <mxPoint x="100" y="479" as="targetPoint" />
            <Array as="points">
              <mxPoint x="710" y="445" />
              <mxPoint x="710" y="420" />
              <mxPoint x="130" y="420" />
              <mxPoint x="130" y="385" />
            </Array>
          </mxGeometry>
        </mxCell>
        <mxCell id="utsIGUZCIPryRFQYJ9Vm-69" value="" style="rounded=1;whiteSpace=wrap;html=1;fillColor=none;" vertex="1" parent="1">
          <mxGeometry x="567" y="430" width="120" height="30" as="geometry" />
        </mxCell>
        <mxCell id="utsIGUZCIPryRFQYJ9Vm-73" style="edgeStyle=orthogonalEdgeStyle;rounded=1;orthogonalLoop=1;jettySize=auto;html=1;exitX=0.5;exitY=1;exitDx=0;exitDy=0;strokeColor=#000000;endArrow=none;endFill=0;" edge="1" parent="1" source="utsIGUZCIPryRFQYJ9Vm-70">
          <mxGeometry relative="1" as="geometry">
            <mxPoint x="220" y="450" as="targetPoint" />
            <Array as="points">
              <mxPoint x="590" y="590" />
              <mxPoint x="220" y="590" />
            </Array>
          </mxGeometry>
        </mxCell>
        <mxCell id="utsIGUZCIPryRFQYJ9Vm-70" value="" style="rounded=1;whiteSpace=wrap;html=1;fillColor=none;" vertex="1" parent="1">
          <mxGeometry x="510" y="550" width="160" height="30" as="geometry" />
        </mxCell>
        <mxCell id="utsIGUZCIPryRFQYJ9Vm-71" value="" style="rounded=1;whiteSpace=wrap;html=1;fillColor=none;" vertex="1" parent="1">
          <mxGeometry x="490" y="610" width="160" height="30" as="geometry" />
        </mxCell>
        <mxCell id="utsIGUZCIPryRFQYJ9Vm-72" value="" style="rounded=1;whiteSpace=wrap;html=1;fillColor=none;" vertex="1" parent="1">
          <mxGeometry x="468" y="796" width="160" height="30" as="geometry" />
        </mxCell>
        <mxCell id="utsIGUZCIPryRFQYJ9Vm-74" value="" style="endArrow=none;html=1;strokeColor=#000000;entryX=0.5;entryY=0;entryDx=0;entryDy=0;edgeStyle=orthogonalEdgeStyle;" edge="1" parent="1" target="utsIGUZCIPryRFQYJ9Vm-71">
          <mxGeometry width="50" height="50" relative="1" as="geometry">
            <mxPoint x="220" y="560" as="sourcePoint" />
            <mxPoint x="390" y="600" as="targetPoint" />
            <Array as="points">
              <mxPoint x="220" y="590" />
              <mxPoint x="570" y="590" />
            </Array>
          </mxGeometry>
        </mxCell>
        <mxCell id="utsIGUZCIPryRFQYJ9Vm-75" value="" style="endArrow=none;html=1;strokeColor=#000000;entryX=0;entryY=0.5;entryDx=0;entryDy=0;edgeStyle=orthogonalEdgeStyle;" edge="1" parent="1" target="utsIGUZCIPryRFQYJ9Vm-72">
          <mxGeometry width="50" height="50" relative="1" as="geometry">
            <mxPoint x="220" y="550" as="sourcePoint" />
            <mxPoint x="580" y="620" as="targetPoint" />
            <Array as="points">
              <mxPoint x="220" y="811" />
            </Array>
          </mxGeometry>
        </mxCell>
        <mxCell id="utsIGUZCIPryRFQYJ9Vm-84" style="edgeStyle=orthogonalEdgeStyle;rounded=1;orthogonalLoop=1;jettySize=auto;html=1;exitX=1;exitY=0.5;exitDx=0;exitDy=0;endArrow=classic;endFill=1;strokeColor=#000000;entryX=0.5;entryY=0;entryDx=0;entryDy=0;" edge="1" parent="1" source="utsIGUZCIPryRFQYJ9Vm-79" target="utsIGUZCIPryRFQYJ9Vm-44">
          <mxGeometry relative="1" as="geometry">
            <mxPoint x="1110" y="250" as="targetPoint" />
            <Array as="points">
              <mxPoint x="940" y="533" />
              <mxPoint x="940" y="200" />
              <mxPoint x="1105" y="200" />
            </Array>
          </mxGeometry>
        </mxCell>
        <mxCell id="utsIGUZCIPryRFQYJ9Vm-79" value="" style="rounded=1;whiteSpace=wrap;html=1;fillColor=none;" vertex="1" parent="1">
          <mxGeometry x="596" y="515" width="140" height="35" as="geometry" />
        </mxCell>
        <mxCell id="utsIGUZCIPryRFQYJ9Vm-85" style="edgeStyle=orthogonalEdgeStyle;rounded=1;orthogonalLoop=1;jettySize=auto;html=1;exitX=0.5;exitY=0;exitDx=0;exitDy=0;endArrow=none;endFill=0;strokeColor=#000000;" edge="1" parent="1" source="utsIGUZCIPryRFQYJ9Vm-80">
          <mxGeometry relative="1" as="geometry">
            <mxPoint x="940" y="480" as="targetPoint" />
            <Array as="points">
              <mxPoint x="560" y="660" />
              <mxPoint x="940" y="660" />
            </Array>
          </mxGeometry>
        </mxCell>
        <mxCell id="utsIGUZCIPryRFQYJ9Vm-80" value="" style="rounded=1;whiteSpace=wrap;html=1;fillColor=none;" vertex="1" parent="1">
          <mxGeometry x="490" y="680" width="140" height="35" as="geometry" />
        </mxCell>
        <mxCell id="utsIGUZCIPryRFQYJ9Vm-83" style="edgeStyle=orthogonalEdgeStyle;rounded=1;orthogonalLoop=1;jettySize=auto;html=1;exitX=1;exitY=0.5;exitDx=0;exitDy=0;endArrow=classic;endFill=1;strokeColor=#000000;entryX=0.5;entryY=0;entryDx=0;entryDy=0;" edge="1" parent="1" source="utsIGUZCIPryRFQYJ9Vm-81" target="utsIGUZCIPryRFQYJ9Vm-44">
          <mxGeometry relative="1" as="geometry">
            <mxPoint x="1110" y="240" as="targetPoint" />
            <Array as="points">
              <mxPoint x="1350" y="338" />
              <mxPoint x="1350" y="220" />
              <mxPoint x="1105" y="220" />
            </Array>
          </mxGeometry>
        </mxCell>
        <mxCell id="utsIGUZCIPryRFQYJ9Vm-81" value="" style="rounded=1;whiteSpace=wrap;html=1;fillColor=none;" vertex="1" parent="1">
          <mxGeometry x="1134" y="320" width="140" height="35" as="geometry" />
        </mxCell>
        <mxCell id="utsIGUZCIPryRFQYJ9Vm-87" style="edgeStyle=orthogonalEdgeStyle;rounded=1;orthogonalLoop=1;jettySize=auto;html=1;endArrow=none;endFill=0;strokeColor=#000000;" edge="1" parent="1" source="utsIGUZCIPryRFQYJ9Vm-86">
          <mxGeometry relative="1" as="geometry">
            <mxPoint x="220" y="740" as="targetPoint" />
          </mxGeometry>
        </mxCell>
        <mxCell id="utsIGUZCIPryRFQYJ9Vm-86" value="" style="rounded=1;whiteSpace=wrap;html=1;fillColor=none;" vertex="1" parent="1">
          <mxGeometry x="466" y="880" width="160" height="30" as="geometry" />
        </mxCell>
        <mxCell id="utsIGUZCIPryRFQYJ9Vm-88" value="" style="rounded=1;whiteSpace=wrap;html=1;strokeColor=#000000;fillColor=none;" vertex="1" parent="1">
          <mxGeometry x="1148" y="390" width="96" height="30" as="geometry" />
        </mxCell>
        <mxCell id="utsIGUZCIPryRFQYJ9Vm-92" style="edgeStyle=orthogonalEdgeStyle;rounded=1;orthogonalLoop=1;jettySize=auto;html=1;exitX=1;exitY=0.5;exitDx=0;exitDy=0;entryX=0.5;entryY=1;entryDx=0;entryDy=0;endArrow=classic;endFill=1;strokeColor=#000000;" edge="1" parent="1" source="utsIGUZCIPryRFQYJ9Vm-89" target="utsIGUZCIPryRFQYJ9Vm-88">
          <mxGeometry relative="1" as="geometry" />
        </mxCell>
        <mxCell id="utsIGUZCIPryRFQYJ9Vm-89" value="" style="rounded=1;whiteSpace=wrap;html=1;strokeColor=#000000;fillColor=none;" vertex="1" parent="1">
          <mxGeometry x="630" y="682.5" width="96" height="30" as="geometry" />
        </mxCell>
        <mxCell id="utsIGUZCIPryRFQYJ9Vm-91" style="edgeStyle=orthogonalEdgeStyle;rounded=1;orthogonalLoop=1;jettySize=auto;html=1;entryX=0.5;entryY=1;entryDx=0;entryDy=0;endArrow=classic;endFill=1;strokeColor=#000000;" edge="1" parent="1" source="utsIGUZCIPryRFQYJ9Vm-90" target="utsIGUZCIPryRFQYJ9Vm-88">
          <mxGeometry relative="1" as="geometry" />
        </mxCell>
        <mxCell id="utsIGUZCIPryRFQYJ9Vm-90" value="" style="rounded=1;whiteSpace=wrap;html=1;strokeColor=#000000;fillColor=none;" vertex="1" parent="1">
          <mxGeometry x="650" y="620" width="96" height="30" as="geometry" />
        </mxCell>
      </root>
    </mxGraphModel>
  </diagram>
</mxfile>
